<mxfile host="65bd71144e">
    <diagram name="Strona-1" id="0rxzClErRg4FRIJjoY4H">
        <mxGraphModel dx="1296" dy="807" grid="1" gridSize="10" guides="1" tooltips="1" connect="1" arrows="1" fold="1" page="1" pageScale="1" pageWidth="850" pageHeight="1100" math="0" shadow="0">
            <root>
                <mxCell id="0"/>
                <mxCell id="1" parent="0"/>
                <mxCell id="hI-XZIwANa7J9hPfzNEB-29" style="edgeStyle=orthogonalEdgeStyle;rounded=0;orthogonalLoop=1;jettySize=auto;html=1;entryX=0.5;entryY=0;entryDx=0;entryDy=0;exitX=0.5;exitY=1;exitDx=0;exitDy=0;" parent="1" source="hI-XZIwANa7J9hPfzNEB-6" target="hI-XZIwANa7J9hPfzNEB-33" edge="1">
                    <mxGeometry relative="1" as="geometry">
                        <mxPoint x="730" y="370" as="sourcePoint"/>
                        <mxPoint x="680" y="340" as="targetPoint"/>
                        <Array as="points">
                            <mxPoint x="720" y="480"/>
                            <mxPoint x="720" y="480"/>
                        </Array>
                    </mxGeometry>
                </mxCell>
                <mxCell id="hI-XZIwANa7J9hPfzNEB-37" value="Not passed" style="edgeLabel;html=1;align=center;verticalAlign=middle;resizable=0;points=[];" parent="hI-XZIwANa7J9hPfzNEB-29" vertex="1" connectable="0">
                    <mxGeometry x="-0.3573" y="-1" relative="1" as="geometry">
                        <mxPoint as="offset"/>
                    </mxGeometry>
                </mxCell>
                <mxCell id="5" style="edgeStyle=none;html=1;exitX=1;exitY=0.5;exitDx=0;exitDy=0;entryX=0;entryY=0.5;entryDx=0;entryDy=0;" edge="1" parent="1" source="hI-XZIwANa7J9hPfzNEB-6" target="hI-XZIwANa7J9hPfzNEB-25">
                    <mxGeometry relative="1" as="geometry"/>
                </mxCell>
                <mxCell id="6" value="Passed" style="edgeLabel;html=1;align=center;verticalAlign=middle;resizable=0;points=[];" vertex="1" connectable="0" parent="5">
                    <mxGeometry x="-0.2093" y="-1" relative="1" as="geometry">
                        <mxPoint as="offset"/>
                    </mxGeometry>
                </mxCell>
                <mxCell id="hI-XZIwANa7J9hPfzNEB-6" value="(Merge gate)&lt;div&gt;Workflow 1:&lt;br&gt;&lt;div&gt;Running tests of every service with changes&lt;/div&gt;&lt;/div&gt;" style="shape=parallelogram;perimeter=parallelogramPerimeter;whiteSpace=wrap;html=1;fixedSize=1;" parent="1" vertex="1">
                    <mxGeometry x="640" y="280" width="160" height="80" as="geometry"/>
                </mxCell>
                <mxCell id="hI-XZIwANa7J9hPfzNEB-15" style="edgeStyle=orthogonalEdgeStyle;rounded=0;orthogonalLoop=1;jettySize=auto;html=1;exitX=1;exitY=0.5;exitDx=0;exitDy=0;entryX=0;entryY=0.5;entryDx=0;entryDy=0;" parent="1" source="hI-XZIwANa7J9hPfzNEB-9" target="hI-XZIwANa7J9hPfzNEB-14" edge="1">
                    <mxGeometry relative="1" as="geometry"/>
                </mxCell>
                <mxCell id="hI-XZIwANa7J9hPfzNEB-9" value="PR opened" style="rounded=0;whiteSpace=wrap;html=1;" parent="1" vertex="1">
                    <mxGeometry x="240" y="280" width="120" height="80" as="geometry"/>
                </mxCell>
                <mxCell id="3" style="edgeStyle=none;html=1;exitX=1;exitY=0.5;exitDx=0;exitDy=0;entryX=0;entryY=0.5;entryDx=0;entryDy=0;" edge="1" parent="1" source="hI-XZIwANa7J9hPfzNEB-1" target="hI-XZIwANa7J9hPfzNEB-9">
                    <mxGeometry relative="1" as="geometry"/>
                </mxCell>
                <mxCell id="hI-XZIwANa7J9hPfzNEB-1" value="New commit" style="rounded=0;whiteSpace=wrap;html=1;" parent="1" vertex="1">
                    <mxGeometry x="40" y="280" width="120" height="80" as="geometry"/>
                </mxCell>
                <mxCell id="hI-XZIwANa7J9hPfzNEB-16" style="edgeStyle=orthogonalEdgeStyle;rounded=0;orthogonalLoop=1;jettySize=auto;html=1;exitX=1;exitY=0.5;exitDx=0;exitDy=0;entryX=0;entryY=0.5;entryDx=0;entryDy=0;" parent="1" source="hI-XZIwANa7J9hPfzNEB-14" target="hI-XZIwANa7J9hPfzNEB-6" edge="1">
                    <mxGeometry relative="1" as="geometry"/>
                </mxCell>
                <mxCell id="hI-XZIwANa7J9hPfzNEB-14" value="PR blocked from merge" style="rounded=0;whiteSpace=wrap;html=1;" parent="1" vertex="1">
                    <mxGeometry x="440" y="280" width="120" height="80" as="geometry"/>
                </mxCell>
                <mxCell id="hI-XZIwANa7J9hPfzNEB-26" style="edgeStyle=orthogonalEdgeStyle;rounded=0;orthogonalLoop=1;jettySize=auto;html=1;exitX=1;exitY=0.5;exitDx=0;exitDy=0;entryX=0;entryY=0.5;entryDx=0;entryDy=0;" parent="1" source="hI-XZIwANa7J9hPfzNEB-25" edge="1" target="hI-XZIwANa7J9hPfzNEB-28">
                    <mxGeometry relative="1" as="geometry">
                        <mxPoint x="499.52941176470586" y="99.99999999999989" as="targetPoint"/>
                    </mxGeometry>
                </mxCell>
                <mxCell id="hI-XZIwANa7J9hPfzNEB-27" value="Merge" style="edgeLabel;html=1;align=center;verticalAlign=middle;resizable=0;points=[];" parent="hI-XZIwANa7J9hPfzNEB-26" vertex="1" connectable="0">
                    <mxGeometry x="-0.0336" y="3" relative="1" as="geometry">
                        <mxPoint as="offset"/>
                    </mxGeometry>
                </mxCell>
                <mxCell id="hI-XZIwANa7J9hPfzNEB-25" value="PR merge block unlocked" style="rounded=0;whiteSpace=wrap;html=1;" parent="1" vertex="1">
                    <mxGeometry x="880" y="280" width="120" height="80" as="geometry"/>
                </mxCell>
                <mxCell id="hI-XZIwANa7J9hPfzNEB-28" value="Commit on main" style="rounded=0;whiteSpace=wrap;html=1;" parent="1" vertex="1">
                    <mxGeometry x="1080" y="280" width="120" height="80" as="geometry"/>
                </mxCell>
                <mxCell id="hI-XZIwANa7J9hPfzNEB-36" style="edgeStyle=orthogonalEdgeStyle;rounded=0;orthogonalLoop=1;jettySize=auto;html=1;exitX=0;exitY=0.5;exitDx=0;exitDy=0;entryX=0.5;entryY=1;entryDx=0;entryDy=0;" parent="1" source="hI-XZIwANa7J9hPfzNEB-33" target="hI-XZIwANa7J9hPfzNEB-14" edge="1">
                    <mxGeometry relative="1" as="geometry">
                        <mxPoint x="659.5294117647059" y="510" as="targetPoint"/>
                    </mxGeometry>
                </mxCell>
                <mxCell id="hI-XZIwANa7J9hPfzNEB-33" value="New commit with changes" style="rounded=0;whiteSpace=wrap;html=1;" parent="1" vertex="1">
                    <mxGeometry x="640" y="480" width="160" height="80" as="geometry"/>
                </mxCell>
            </root>
        </mxGraphModel>
    </diagram>
</mxfile>